<?xml version="1.0" encoding="UTF-8"?>
<!DOCTYPE svg PUBLIC "-//W3C//DTD SVG 1.1//EN" "http://www.w3.org/Graphics/SVG/1.1/DTD/svg11.dtd">
<!-- Creator: CorelDRAW -->
<svg xmlns="http://www.w3.org/2000/svg" xml:space="preserve" width="9mm" height="9mm" version="1.1" style="shape-rendering:geometricPrecision; text-rendering:geometricPrecision; image-rendering:optimizeQuality; fill-rule:evenodd; clip-rule:evenodd"
viewBox="0 0 900 900"
 xmlns:xlink="http://www.w3.org/1999/xlink"
 xmlns:xodm="http://www.corel.com/coreldraw/odm/2003">
 <defs>
  <style type="text/css">
   <![CDATA[
    .fil0 {fill:#C92071;fill-rule:nonzero}
   ]]>
  </style>
 </defs>
 <g id="Layer_x0020_1">
  <metadata id="CorelCorpID_0Corel-Layer"/>
  <path class="fil0" d="M137.81 21.94c-32.35,5.44 -61.6,20.67 -85.23,44.24 -17.44,17.59 -24.89,28.47 -34.52,51.14 -12.54,28.83 -11.81,10.34 -11.81,338.56 0,321.15 -0.37,308.45 9.99,335.65 7.09,19.04 17.99,36.09 33.44,52.23 21.98,23.03 45.6,36.81 76.86,45.15l15.08 3.99 289.83 0.73c206.24,0.36 295.1,0 307.81,-1.46 37.8,-4.35 68.33,-18.67 94.5,-44.6 19.44,-19.23 30.89,-37.9 40.33,-66.01l5.27 -15.41 0 -308.28 0 -308.27 -4.18 -14.33c-15.26,-52.77 -54.87,-92.48 -108.48,-109.34l-16.35 -5.08 -301.64 -0.18c-165.9,-0.18 -305.82,0.36 -310.9,1.27zm193.52 326.95c61.23,58.75 110.84,107.53 110.66,108.26 -0.37,0.72 -50.7,49.5 -111.94,108.44l-111.57 107.17 -28.89 -27.75c-15.81,-15.05 -28.89,-28.47 -28.71,-29.38 0,-1.08 36.89,-36.99 81.77,-79.78 44.7,-42.98 81.41,-78.52 81.59,-79.07 0,-0.72 -36.71,-36.63 -81.77,-79.79 -44.88,-43.15 -81.77,-78.88 -81.77,-79.42 0,-2.36 55.6,-56.4 57.42,-56.03 1.27,0.36 52.15,48.59 113.21,107.35zm396.31 290.32l0 33.55 -105.4 0 -105.39 0 0 -33.55 0 -33.55 105.39 0 105.4 0 0 33.55z"/>
 </g>
</svg>
